<?xml version="1.0" encoding="utf-8"?>
<!-- Generator: Adobe Illustrator 18.1.0, SVG Export Plug-In . SVG Version: 6.00 Build 0)  -->
<svg version="1.1" id="Icons" xmlns="http://www.w3.org/2000/svg" xmlns:xlink="http://www.w3.org/1999/xlink" x="0px" y="0px"
	 viewBox="0 0 612 792" enable-background="new 0 0 612 792" xml:space="preserve">
<path id="Twitter__x28_alt_x29_" fill="#3F7498" d="M536,374.6c31.2-2.4,52-16.5,60-35.5c-11,6.7-45.9,14.1-64.9,7.3
	c-1.2-4.3-1.8-8.6-3.1-12.9c-14.7-53.2-64.3-96.7-116.9-91.2c4.3-1.8,8.6-3.1,12.9-4.9c5.5-1.8,39.8-7.3,34.3-19.6
	c-4.3-10.4-45.9,8-53.2,10.4c10.4-3.7,26.9-10.4,28.8-22c-15.9,2.4-31.2,9.8-42.8,20.2c4.3-4.9,7.3-10.4,8-16.5
	c-41.6,26.9-66.1,80.8-86.3,133.4c-15.3-15.3-29.4-26.9-41.6-33.7c-34.9-18.4-75.9-37.9-141.4-62.4c-1.8,21.4,10.4,50.2,47.1,69.2
	c-8-1.2-22.6,1.2-33.7,4.3c4.9,24.5,20.2,45.3,61.8,55.1c-19,1.2-28.8,5.5-37.9,14.7c8.6,17.1,30,37.3,67.9,33
	c-42.2,18.4-17.1,52,17.1,47.1c-58.8,60.6-151.2,56.3-204.4,5.5c138.9,189.1,440,112,485.3-70.4c33.7,0,53.2-11.6,65.5-25.1
	C578.8,383.8,550.7,380.7,536,374.6z"/>
</svg>
