<?xml version="1.0" encoding="utf-8"?>
<!-- Generator: Adobe Illustrator 18.1.0, SVG Export Plug-In . SVG Version: 6.00 Build 0)  -->
<svg version="1.1" id="Icons" xmlns="http://www.w3.org/2000/svg" xmlns:xlink="http://www.w3.org/1999/xlink" x="0px" y="0px"
	 viewBox="0 0 612 792" enable-background="new 0 0 612 792" xml:space="preserve">
<path id="WordPress__x28_alt_x29_" fill="#3F7498" d="M72.2,228.4c45.9-85.7,138.3-142,244.2-142c68.5,0,131.6,29.4,179.9,70.4
	c-14.1-2.4-28.8,0.6-44.1,9.2c-35.5,20.2-47.1,77.7-1.2,107.1c28.8,17.7,39.2,63,37.9,90.6c-1.2,27.5-66.7,153.6-66.7,153.6
	L358,296.9c0,0-2.4-15.3-2.4-20.2c0-5.5,1.8-12.2,5.5-16.5c2.4-2.4,6.1-8,10.4-8h30.6v-24.5H236.8v24.5h4.9
	c5.5,0,10.4,7.3,15.9,12.2c6.1,6.1,13.5,29.4,22.6,53.9l23.9,78.9l-52,120l-56.9-239.3c0,0,1.8-16.5,4.9-19c2.4-1.8,5.5-6.7,9.8-6.7
	h1.8v-24.5H72.2V228.4z M104.6,270c0,0-13.5-17.1-27.5-17.1H62.4C48.3,283.4,41,324.4,41,362.4c0,113.2,69.8,210.5,168.3,252.1
	L104.6,270z M553.2,225.9c5.5,25.1,4.3,55.1-6.1,88.1c-26.9,86.3-92.4,241.1-118.1,300.5c96.1-42.8,162.8-138.3,162.8-249.1
	C591.8,314.7,577.7,266.9,553.2,225.9z M321.9,459.1l-70.4,172c20.8,4.9,42.2,8,64.9,8c23.3,0,45.3-3.1,67.3-8L321.9,459.1z"/>
</svg>
